<svg width="191" height="142" viewBox="0 0 191 142" fill="none" xmlns="http://www.w3.org/2000/svg">
<path d="M149.082 134.141H44.6767L44.7238 123.195C44.843 95.4976 67.1997 72.675 95.2057 72.204C95.5083 72.1989 95.8113 72.1963 96.1149 72.1963H96.115C102.417 72.1916 108.669 73.3023 114.575 75.4758C134.391 82.7735 147.692 101.315 148.577 122.207L149.082 134.141Z" fill="url(#paint0_linear_1_132)"/>
<path d="M190.643 134.141H0.102295V134.567H190.643V134.141Z" fill="#2F2E41"/>
<path d="M95.1115 85.1829L99.7118 88.4915L104.312 127.366H115.186L111.422 83.1151L96.3661 77.3252L95.1115 85.1829Z" fill="#2F2E41"/>
<path d="M75.8732 72.7762C75.8732 72.7762 74.6185 86.8372 79.6372 87.2507C84.6559 87.6643 103.894 83.1151 103.894 83.1151L113.095 115.373L126.896 108.342C126.896 108.342 118.532 71.949 113.513 69.8812C108.495 67.8134 91.7656 63.6778 91.7656 63.6778L79.6372 65.7456L75.8732 72.7762Z" fill="#2F2E41"/>
<path d="M105.985 126.539C105.985 126.539 103.476 136.051 105.149 136.878C106.155 137.375 107.132 137.927 108.076 138.532V136.878C108.076 136.878 110.167 138.946 110.167 140.6C110.167 142.254 121.459 142.668 121.459 140.6C121.459 138.532 121.041 136.051 118.95 134.81C116.859 133.569 114.35 126.539 114.35 126.539H105.985Z" fill="#2F2E41"/>
<path d="M118.114 109.583L118.95 117.441L121.878 122.403L128.987 114.546L123.55 105.861L118.114 109.583Z" fill="#2F2E41"/>
<path d="M124.805 117.441C124.805 117.441 126.345 112.234 127.875 112.769C129.406 113.305 135.261 118.681 135.261 118.681L139.443 121.163C139.443 121.163 147.807 121.99 145.298 124.471C142.789 126.953 133.588 130.261 129.406 128.607C125.223 126.953 124.387 126.539 124.387 126.539L123.132 127.366L118.114 126.125L118.95 117.441C118.95 117.441 120.205 121.163 124.805 117.441Z" fill="#2F2E41"/>
<path d="M90.0927 21.0812C95.4052 21.0812 99.7118 16.8226 99.7118 11.5693C99.7118 6.31605 95.4052 2.05744 90.0927 2.05744C84.7803 2.05744 80.4736 6.31605 80.4736 11.5693C80.4736 16.8226 84.7803 21.0812 90.0927 21.0812Z" fill="#9F616A"/>
<path d="M84.0285 17.1524C84.0285 17.1524 84.865 25.8371 82.3556 25.8371C79.8463 25.8371 82.7739 36.5897 89.4654 36.5897C96.157 36.5897 98.6663 23.7693 98.6663 23.7693C98.6663 23.7693 94.0659 22.1151 94.9023 16.7388C95.7388 11.3625 84.0285 17.1524 84.0285 17.1524Z" fill="#9F616A"/>
<path d="M83.3621 25.1746L79.8463 26.6642L70.3045 30.6561C69.9198 30.8171 69.598 31.0967 69.3871 31.4532C69.1762 31.8098 69.0875 32.2242 69.1342 32.6346L72.7365 64.2982C72.7365 64.2982 68.9725 72.1558 74.8276 72.5694L75.6641 75.4643L82.3556 67.6067L107.449 66.7795L107.867 26.6642L96.3856 22.1778C96.3856 22.1778 94.8241 30.7155 83.3621 25.1746Z" fill="#3F3D56"/>
<path d="M71.691 31.8337L70.1454 31.3971C69.9722 31.3481 69.7903 31.3361 69.612 31.3617C69.4336 31.3874 69.2628 31.4502 69.1108 31.5459C68.9588 31.6417 68.8291 31.7682 68.7302 31.9172C68.6313 32.0662 68.5655 32.2342 68.5371 32.4102L64.4358 57.8497C64.116 59.7336 64.4222 61.6693 65.3087 63.3666C66.5759 65.7392 69.2078 67.891 74.6185 65.3321L78.3825 38.4507L71.691 31.8337Z" fill="#3F3D56"/>
<path d="M103.058 26.0439L108.076 26.871L121.878 45.8948L123.132 49.2032L131.078 46.7219C131.078 46.7219 130.66 50.4439 134.842 50.0304C134.842 50.0304 129.824 63.6778 119.368 59.5422C108.913 55.4066 105.567 42.9998 105.567 42.9998L103.058 26.0439Z" fill="#3F3D56"/>
<path d="M108.913 34.3152L90.0927 26.8709L89.2564 29.3524L98.0389 36.7964L108.913 34.3152Z" fill="#CCCCCC"/>
<path d="M84.3013 12.1757C84.6565 12.0819 84.7087 11.6155 84.7206 11.252C84.7844 9.30588 85.9695 7.30891 87.8534 6.74235C88.5763 6.54632 89.3332 6.50514 90.0735 6.62155C91.1302 6.76073 92.1505 7.09733 93.0801 7.61342C93.5707 7.8862 94.052 8.21474 94.6086 8.29806C94.9762 8.35309 96.5677 8.81066 96.9337 8.87506C97.7384 9.01663 98.4862 9.72858 99.2584 9.46364C99.9971 9.21018 100.161 8.26433 100.179 7.49131C100.219 5.73019 98.8672 3.29273 97.6763 1.98259C96.7726 0.988374 95.4119 0.529431 94.0818 0.29079C92.528 0.0439061 90.9533 -0.0508177 89.3807 0.00799474C87.252 0.0455364 85.0643 0.208008 83.1448 1.11881C81.2253 2.0296 79.613 3.84231 79.521 5.94565C79.5018 6.3838 79.5475 6.82377 79.5103 7.26078C79.4194 8.32685 78.8469 9.28976 78.5784 10.3261C78.3864 11.0866 78.3577 11.8783 78.4941 12.6504C78.6306 13.4224 78.9291 14.1577 79.3705 14.8086C80.0829 15.8453 82.9317 16.7864 82.8905 18.0391C83.4054 17.5116 82.1911 16.9807 82.706 16.4532C82.9367 16.279 83.1001 16.0318 83.1687 15.7529C83.2374 15.474 83.2072 15.1803 83.0833 14.9207L82.5365 12.8119C82.4364 12.4257 82.338 12.0077 82.4892 11.6383C83.0753 10.2061 83.7089 12.3321 84.3013 12.1757Z" fill="#2F2E41"/>
<path d="M89.2564 29.3524L81.3102 59.9557L112.259 70.7084L130.242 55.8201L141.534 22.3219L123.132 35.5558L89.2564 29.3524Z" fill="#F2F2F2"/>
<path d="M90.7734 32.6677L90.6667 33.0675L120.779 40.9252L120.885 40.5254L90.7734 32.6677Z" fill="#E4E4E4"/>
<path d="M89.937 34.7355L89.8303 35.1353L119.942 42.993L120.049 42.5932L89.937 34.7355Z" fill="#E4E4E4"/>
<path d="M89.5188 36.8033L89.4121 37.2031L119.524 45.0608L119.631 44.661L89.5188 36.8033Z" fill="#E4E4E4"/>
<path d="M89.1005 38.8711L88.9939 39.2709L119.106 47.1286L119.212 46.7288L89.1005 38.8711Z" fill="#E4E4E4"/>
<path d="M88.6823 40.9389L88.5756 41.3387L118.688 49.1964L118.794 48.7966L88.6823 40.9389Z" fill="#E4E4E4"/>
<path d="M88.2641 43.0067L88.1574 43.4065L118.269 51.2642L118.376 50.8644L88.2641 43.0067Z" fill="#E4E4E4"/>
<path d="M87.8459 45.0745L87.7392 45.4743L117.851 53.332L117.958 52.9322L87.8459 45.0745Z" fill="#E4E4E4"/>
<path d="M87.4277 47.1423L87.321 47.5421L117.433 55.3998L117.54 55L87.4277 47.1423Z" fill="#E4E4E4"/>
<path d="M87.0094 49.2101L86.9027 49.6099L117.015 57.4676L117.121 57.0678L87.0094 49.2101Z" fill="#E4E4E4"/>
<path d="M76.5044 51.864C76.5044 51.864 85.9105 46.3083 90.0927 50.0304C94.275 53.7524 77.9643 59.1287 77.9643 59.1287L76.5044 51.864Z" fill="#9F616A"/>
<path d="M66.2541 54.5795L78.3825 50.0304C78.3825 50.0304 76.2914 57.888 80.4736 58.3016L74.6185 65.3321C74.6185 65.3321 62.9083 65.3321 66.2541 54.5795Z" fill="#3F3D56"/>
<path d="M98.1698 54.4098L114.264 59.7735L110.455 67.983L94.3611 62.6196L98.1698 54.4098Z" fill="#E4E4E4"/>
<path d="M126.687 37.0033L138.816 27.9048L135.47 39.0711L122.923 48.1694L126.687 37.0033Z" fill="#CCCCCC"/>
<path d="M132.834 43.042L120.706 52.14L120.958 52.4696L133.087 43.3716L132.834 43.042Z" fill="#E4E4E4"/>
<path d="M131.998 47.5912L119.869 56.6892L120.122 57.0187L132.251 47.9207L131.998 47.5912Z" fill="#E4E4E4"/>
<path d="M133.588 50.4439C133.588 50.4439 144.043 44.2405 137.352 41.7592C130.66 39.2778 130.66 48.7897 130.66 48.7897C130.66 48.7897 130.242 50.8575 133.588 50.4439Z" fill="#9F616A"/>
<path opacity="0.1" d="M72.3184 36.5897L71.9001 52.7186L78.3825 50.8892L73.1547 51.0642L72.3184 36.5897Z" fill="black"/>
<path d="M26.6821 126.847C27.9895 131.626 32.4675 134.586 32.4675 134.586C32.4675 134.586 34.8259 129.797 33.5185 125.018C32.2111 120.24 27.7331 117.28 27.7331 117.28C27.7331 117.28 25.3747 122.068 26.6821 126.847Z" fill="#8985A8"/>
<path d="M28.6032 125.82C32.1906 129.273 32.6288 134.582 32.6288 134.582C32.6288 134.582 27.2506 134.292 23.6632 130.838C20.0757 127.385 19.6376 122.077 19.6376 122.077C19.6376 122.077 25.0158 122.367 28.6032 125.82Z" fill="#3F3D56"/>
<path d="M150.589 80.7111H144.131V87.0972H150.589V80.7111Z" fill="#F2F2F2"/>
<path d="M124.757 8.33549H118.299V14.7216H124.757V8.33549Z" fill="#F2F2F2"/>
<path d="M43.6004 73.0478C45.3838 73.0478 46.8294 71.6182 46.8294 69.8547C46.8294 68.0913 45.3838 66.6617 43.6004 66.6617C41.8171 66.6617 40.3714 68.0913 40.3714 69.8547C40.3714 71.6182 41.8171 73.0478 43.6004 73.0478Z" fill="#F2F2F2"/>
<defs>
<linearGradient id="paint0_linear_1_132" x1="185.068" y1="152.151" x2="4.90259" y2="112.71" gradientUnits="userSpaceOnUse">
<stop stop-color="#FF354D"/>
<stop offset="1" stop-color="#FE6108"/>
</linearGradient>
</defs>
</svg>
